<svg width="14" height="14" viewBox="0 0 14 14" fill="none" xmlns="http://www.w3.org/2000/svg">
<path d="M2.44825 3.202L3.4045 6.38875M7.60975 10.5955L10.798 11.5518M6.76225 7.23775L11.0815 2.9185M1 2.125C1 2.27274 1.0291 2.41903 1.08564 2.55552C1.14217 2.69201 1.22504 2.81603 1.3295 2.9205C1.43397 3.02496 1.55799 3.10783 1.69448 3.16436C1.83097 3.2209 1.97726 3.25 2.125 3.25C2.27274 3.25 2.41903 3.2209 2.55552 3.16436C2.69201 3.10783 2.81603 3.02496 2.9205 2.9205C3.02496 2.81603 3.10783 2.69201 3.16436 2.55552C3.2209 2.41903 3.25 2.27274 3.25 2.125C3.25 1.97726 3.2209 1.83097 3.16436 1.69448C3.10783 1.55799 3.02496 1.43397 2.9205 1.3295C2.81603 1.22504 2.69201 1.14217 2.55552 1.08564C2.41903 1.0291 2.27274 1 2.125 1C1.97726 1 1.83097 1.0291 1.69448 1.08564C1.55799 1.14217 1.43397 1.22504 1.3295 1.3295C1.22504 1.43397 1.14217 1.55799 1.08564 1.69448C1.0291 1.83097 1 1.97726 1 2.125ZM10.75 2.125C10.75 2.42337 10.8685 2.70952 11.0795 2.9205C11.2905 3.13147 11.5766 3.25 11.875 3.25C12.1734 3.25 12.4595 3.13147 12.6705 2.9205C12.8815 2.70952 13 2.42337 13 2.125C13 1.82663 12.8815 1.54048 12.6705 1.3295C12.4595 1.11853 12.1734 1 11.875 1C11.5766 1 11.2905 1.11853 11.0795 1.3295C10.8685 1.54048 10.75 1.82663 10.75 2.125ZM10.75 11.875C10.75 12.1734 10.8685 12.4595 11.0795 12.6705C11.2905 12.8815 11.5766 13 11.875 13C12.1734 13 12.4595 12.8815 12.6705 12.6705C12.8815 12.4595 13 12.1734 13 11.875C13 11.5766 12.8815 11.2905 12.6705 11.0795C12.4595 10.8685 12.1734 10.75 11.875 10.75C11.5766 10.75 11.2905 10.8685 11.0795 11.0795C10.8685 11.2905 10.75 11.5766 10.75 11.875ZM1 9.625C1 10.5201 1.35558 11.3785 1.98851 12.0115C2.62145 12.6444 3.47989 13 4.375 13C5.27011 13 6.12855 12.6444 6.76149 12.0115C7.39442 11.3785 7.75 10.5201 7.75 9.625C7.75 8.72989 7.39442 7.87145 6.76149 7.23851C6.12855 6.60558 5.27011 6.25 4.375 6.25C3.47989 6.25 2.62145 6.60558 1.98851 7.23851C1.35558 7.87145 1 8.72989 1 9.625Z" stroke="#AFD0F6" strokeWidth="1.5" strokeLinecap="round" stroke-linejoin="round"/>
</svg>
