<svg width="18" height="18" viewBox="0 0 18 18" fill="none" xmlns="http://www.w3.org/2000/svg">
<path d="M16.95 7.80872C16.8857 7.52293 16.7072 7.25857 16.5036 7.14783C16.4393 7.11211 16.0393 7.06924 15.6107 7.05137C14.8928 7.01922 14.8142 7.00493 14.5856 6.87275C14.2249 6.66198 14.1284 6.43335 14.1248 5.81889C14.1213 4.64 13.632 3.54327 12.664 2.55728C11.9747 1.85352 11.2032 1.37839 10.3246 1.11046C10.1139 1.04615 9.64242 1.02472 8.06375 1.00686C5.58502 0.978278 5.03499 1.02829 4.19208 1.3641C2.63841 1.97855 1.52405 3.28605 1.11689 4.95794C1.04188 5.27231 1.02402 5.77602 1.00616 8.66968C0.984734 12.2957 1.00974 12.828 1.23475 13.546C1.79193 15.3179 3.37417 16.629 4.96356 16.9148C5.49216 17.0113 12.0104 17.0327 12.6783 16.9434C13.8391 16.7862 14.7499 16.3182 15.6035 15.4465C16.2214 14.8142 16.6071 14.1319 16.8607 13.2281C17.0357 12.5993 17.0215 8.12667 16.95 7.80872ZM5.44573 5.53667C5.72432 5.25445 5.8029 5.24373 7.54586 5.24373C9.11382 5.24373 9.16739 5.24731 9.39598 5.3652C9.72814 5.5331 9.87458 5.76888 9.87458 6.14755C9.87458 6.48693 9.73886 6.72628 9.43527 6.9192C9.27097 7.0228 9.17454 7.02994 7.63872 7.03709C6.69224 7.04423 5.93505 7.02279 5.82433 6.99422C5.23143 6.82631 5.00999 5.97608 5.44573 5.53667ZM12.2962 12.6743L11.764 12.7601L8.99595 12.7922C6.56366 12.8208 5.8779 12.7779 5.74932 12.7208C5.49573 12.61 5.25643 12.3028 5.21714 12.0277C5.17786 11.767 5.31001 11.4097 5.51002 11.2275C5.76361 10.9989 5.87433 10.9917 8.98524 10.9882C12.1854 10.9846 12.1676 10.9846 12.4712 11.2668C12.9033 11.6705 12.8105 12.3814 12.2962 12.6743Z" fill="white" stroke="#177EF8"/>
</svg>
