<svg width="15" height="17" viewBox="0 0 15 17" fill="none" xmlns="http://www.w3.org/2000/svg">
<path d="M13.1334 3.2944C13.1282 3.25756 13.1102 3.2237 13.0827 3.19867C13.0551 3.17365 13.0197 3.15901 12.9825 3.15731C12.914 3.15731 11.706 3.12989 11.706 3.12989C11.706 3.12989 10.9651 2.41633 10.6904 2.14181V16.9726L15 15.9033C15 15.9033 13.1471 3.37665 13.1334 3.2944ZM9.71599 2.14181C9.65016 1.93424 9.56748 1.73239 9.46878 1.53827C9.11082 0.852478 8.57662 0.48062 7.94505 0.48062C7.89892 0.479018 7.85279 0.483629 7.8079 0.494329C7.79418 0.466911 7.76675 0.453202 7.75304 0.425784C7.47874 0.125214 7.12215 -0.0118766 6.69631 0.000804212C5.87341 0.0282223 5.05052 0.617711 4.39049 1.67433C3.92384 2.41531 3.56759 3.34821 3.4709 4.07547C2.52389 4.36336 1.86523 4.56934 1.85151 4.58305C1.37149 4.73385 1.35743 4.74756 1.30292 5.19995C1.26177 5.54268 0 15.2014 0 15.2014L10.3746 17V1.9773C10.3242 1.9792 10.2738 1.98378 10.2238 1.99101C10.2238 1.99101 10.0318 2.04585 9.71599 2.14181ZM7.82196 2.73199C7.27336 2.89649 6.66888 3.08842 6.07879 3.26698C6.24337 2.62197 6.57287 1.9773 6.95723 1.55335C7.1081 1.40255 7.31416 1.22399 7.54732 1.11432C7.78081 1.60682 7.83567 2.27924 7.82196 2.73199ZM6.69631 0.564245C6.86919 0.558798 7.04024 0.601009 7.19073 0.686256C6.97129 0.795928 6.75151 0.974488 6.54578 1.18012C6.02428 1.74288 5.6262 2.61957 5.46162 3.45754C4.9672 3.60868 4.47312 3.75948 4.02156 3.89657C4.32191 2.58084 5.43351 0.591663 6.69631 0.564245ZM5.10435 8.11004C5.15921 8.98776 7.47874 9.18003 7.61589 11.2515C7.71189 12.8842 6.75117 13.9953 5.36493 14.0779C3.69068 14.1876 2.7711 13.1999 2.7711 13.1999L3.12769 11.6919C3.12769 11.6919 4.04727 12.3917 4.78856 12.3369C5.26858 12.3095 5.44756 11.9116 5.43351 11.637C5.36493 10.4848 3.4709 10.5533 3.34747 8.66011C3.23775 7.06849 4.28077 5.46351 6.58659 5.31237C7.47806 5.25753 7.93168 5.47722 7.93168 5.47722L7.41017 7.45132C7.41017 7.45132 6.82008 7.17714 6.11994 7.23197C5.10435 7.30086 5.09063 7.94519 5.10435 8.11004ZM8.3709 2.56713C8.3709 2.15586 8.31604 1.56569 8.12369 1.07182C8.75526 1.1952 9.05699 1.89436 9.19448 2.32037C8.94738 2.38892 8.67285 2.47117 8.3709 2.56713Z" fill="white"/>
</svg>
