<svg width="15" height="17" viewBox="0 0 15 17" fill="none" xmlns="http://www.w3.org/2000/svg">
<path d="M13.132 3.63569C13.0152 3.57639 12.9015 3.51138 12.7913 3.44091C12.4709 3.23283 12.1771 2.98765 11.9163 2.71066C11.2637 1.97721 11.02 1.23315 10.9302 0.712194H10.9338C10.8588 0.279778 10.8898 0 10.8945 0H7.92221V11.2896C7.92221 11.4411 7.92221 11.5909 7.91573 11.739C7.91573 11.7574 7.91392 11.7744 7.91284 11.7942C7.91284 11.8024 7.91284 11.8109 7.91104 11.8194V11.8257C7.87971 12.2308 7.74752 12.6221 7.52609 12.9652C7.30467 13.3083 7.0008 13.5927 6.64121 13.7934C6.26644 14.0028 5.84258 14.1127 5.41141 14.1121C4.02657 14.1121 2.9042 13.0029 2.9042 11.6331C2.9042 10.2632 4.02657 9.15404 5.41141 9.15404C5.67355 9.1538 5.93408 9.19432 6.18332 9.2741L6.18693 6.30137C5.43028 6.20537 4.66159 6.26444 3.92935 6.47485C3.19711 6.68526 2.51721 7.04246 1.93254 7.5239C1.42024 7.96113 0.989539 8.48282 0.659831 9.06551C0.534363 9.278 0.0609718 10.1318 0.00364575 11.5176C-0.0324084 12.3042 0.208073 13.1191 0.322725 13.4559V13.463C0.394833 13.6613 0.674253 14.3381 1.12962 14.9086C1.4968 15.3663 1.93063 15.7683 2.41711 16.1017V16.0947L2.42432 16.1017C3.86324 17.0622 5.45864 16.9992 5.45864 16.9992C5.73481 16.9882 6.65996 16.9992 7.71058 16.5101C8.87585 15.9679 9.53924 15.1601 9.53924 15.1601C9.96305 14.6774 10.3001 14.1273 10.5358 13.5335C10.8047 12.839 10.8945 12.006 10.8945 11.6731V5.68374C10.9306 5.70499 11.4108 6.01699 11.4108 6.01699C11.4108 6.01699 12.1027 6.4526 13.1822 6.73627C13.9566 6.93813 15 6.98063 15 6.98063V4.08228C14.6344 4.12123 13.8921 4.0079 13.132 3.63569Z" fill="white"/>
</svg>
