<svg width="17" height="17" viewBox="0 0 17 17" fill="none" xmlns="http://www.w3.org/2000/svg">
<g clip-path="url(#clip0_605_113816)">
<path d="M16.9481 8.51547C16.9647 12.9348 13.3976 16.5289 8.97831 16.5456C4.55899 16.5623 0.964854 12.9952 0.94817 8.57587C0.931486 4.15655 4.49859 0.56241 8.91791 0.545726C13.3372 0.529043 16.9314 4.09614 16.9481 8.51547ZM8.03863 12.7849L13.9517 6.82709C14.048 6.72994 14.1018 6.59851 14.1013 6.46168C14.1008 6.32486 14.046 6.19384 13.9489 6.09742L13.2165 5.37018C13.1684 5.32242 13.1113 5.28461 13.0486 5.2589C12.9859 5.23319 12.9187 5.22009 12.8509 5.22034C12.7831 5.2206 12.716 5.23421 12.6535 5.26039C12.591 5.28657 12.5342 5.32481 12.4865 5.37293L7.66415 10.2318L5.39563 7.98037C5.34752 7.93261 5.29048 7.8948 5.22775 7.86909C5.16503 7.84338 5.09785 7.83028 5.03006 7.83053C4.96227 7.83079 4.8952 7.8444 4.83267 7.87058C4.77014 7.89676 4.71338 7.935 4.66564 7.98312L3.93872 8.71587C3.84237 8.81302 3.78853 8.94445 3.78905 9.08128C3.78956 9.2181 3.84439 9.34913 3.94147 9.44554L7.30895 12.7877C7.4061 12.884 7.53753 12.9379 7.67436 12.9374C7.81119 12.9368 7.94221 12.882 8.03863 12.7849Z" fill="url(#paint0_linear_605_113816)"/>
</g>
<defs>
<linearGradient id="paint0_linear_605_113816" x1="8.91791" y1="0.545726" x2="8.97831" y2="16.5456" gradientUnits="userSpaceOnUse">
<stop stopColor="#50D07C"/>
<stop offset="0.328125" stopColor="#257EF0"/>
<stop offset="0.6875" stopColor="#8E52AE"/>
<stop offset="1" stopColor="#CD3F80"/>
</linearGradient>
<clipPath id="clip0_605_113816">
<rect width="16" height="16" fill="white" transform="translate(0.917969 0.575928) rotate(-0.216301)"/>
</clipPath>
</defs>
</svg>
