<svg width="16" height="14" viewBox="0 0 16 14" fill="none" xmlns="http://www.w3.org/2000/svg">
<path d="M8.77434 12.6452C8.59468 12.6452 8.42238 12.7165 8.29534 12.8436C8.16829 12.9706 8.09692 13.1429 8.09692 13.3226C8.09692 13.5022 8.16829 13.6745 8.29534 13.8016C8.42238 13.9286 8.59468 14 8.77434 14H14.1937C14.6129 14 15.015 13.8335 15.3114 13.537C15.6078 13.2406 15.7743 12.8386 15.7743 12.4194V1.58065C15.7743 1.16143 15.6078 0.759389 15.3114 0.46296C15.015 0.166532 14.6129 0 14.1937 0H8.77434C8.59468 0 8.42238 0.0713707 8.29534 0.198411C8.16829 0.325452 8.09692 0.497757 8.09692 0.677419C8.09692 0.857082 8.16829 1.02939 8.29534 1.15643C8.42238 1.28347 8.59468 1.35484 8.77434 1.35484H14.1937C14.2536 1.35484 14.311 1.37863 14.3534 1.42098C14.3957 1.46332 14.4195 1.52076 14.4195 1.58065V12.4194C14.4195 12.4792 14.3957 12.5367 14.3534 12.579C14.311 12.6214 14.2536 12.6452 14.1937 12.6452H8.77434Z" fill="#5B5B5B"/>
<path fillRule="evenodd" clipRule="evenodd" d="M11.0352 9.13613C11.6584 9.13613 12.1642 8.63032 12.1642 8.0071V5.98387C12.1642 5.36065 11.6584 4.85484 11.0352 4.85484H6.86862C6.86287 4.78858 6.85685 4.72234 6.85056 4.65613L6.80178 4.15394C6.78454 3.97657 6.72477 3.80597 6.62756 3.65662C6.53034 3.50726 6.39855 3.38355 6.24334 3.29598C6.08814 3.20841 5.91411 3.15955 5.736 3.15356C5.5579 3.14756 5.38097 3.18461 5.22023 3.26155C3.74394 3.96869 2.40742 4.93651 1.27494 6.11845L1.18552 6.21239C0.983588 6.42308 0.87085 6.70364 0.87085 6.99548C0.87085 7.28733 0.983588 7.56789 1.18552 7.77858L1.27585 7.87161C2.40799 9.05378 3.7442 10.0219 5.22023 10.7294C5.38097 10.8064 5.5579 10.8434 5.736 10.8374C5.91411 10.8314 6.08814 10.7826 6.24334 10.695C6.39855 10.6074 6.53034 10.4837 6.62756 10.3344C6.72477 10.185 6.78454 10.0144 6.80178 9.83703L6.85056 9.33484L6.86862 9.13613H11.0352ZM6.24088 7.78129C6.0685 7.78143 5.90266 7.84727 5.77713 7.96541C5.6516 8.08356 5.57584 8.24511 5.56527 8.41716C5.5481 8.6791 5.52733 8.94194 5.50204 9.20387L5.48759 9.35019C4.30849 8.74242 3.23595 7.94716 2.31185 6.99548C3.2359 6.04376 4.30846 5.24849 5.48759 4.64077L5.50204 4.7871C5.52733 5.04903 5.5481 5.31097 5.56527 5.57381C5.57584 5.74586 5.6516 5.90741 5.77713 6.02556C5.90266 6.1437 6.0685 6.20954 6.24088 6.20968H10.8094V7.78129H6.24088Z" fill="#5B5B5B"/>
</svg>
